# xmcd
#
# Track frame offsets: 
#        150
#        28890
#        43920
#        57000
#        82470
#        93915
#        107090
#        132550
#        161122
#
# Disc length: 2322 seconds
#
# Revision: 0
# Processed by: cddbd v1.5.2PL0 Copyright (c) Steve Scherf et al.
# Submitted via: ExactAudioCopy v1.3
#
DISCID=80091009
DTITLE=Buddy Guy - A Man and The Blues
DYEAR=1968
DGENRE=Chicago Blues
TTITLE0=A Man And The Blues
TTITLE1=I Can't Quit The Blues
TTITLE2=Money (That's What I Want)
TTITLE3=One Room Country Shack
TTITLE4=Mary Had A Little Lamb
TTITLE5=Just Playing My Axe
TTITLE6=Sweet Little Angel
TTITLE7=Worry, Worry
TTITLE8=Jam On A Monday Morning
EXTD=
EXTT0=
EXTT1=
EXTT2=
EXTT3=
EXTT4=
EXTT5=
EXTT6=
EXTT7=
EXTT8=
PLAYORDER=
